# xmcd
#
# Track frame offsets: 
#        150
#        22350
#        43428
#        63217
#        80957
#        104999
#        128086
#        157875
#        179042
#        203282
#
# Disc length: 3053 seconds
#
# Revision: 0
# Processed by: cddbd v1.5.2PL0 Copyright (c) Steve Scherf et al.
# Submitted via: ExactAudioCopyFreeDBPlugin 1.0
#
DISCID=940beb0a
DTITLE=Connie Hawkins And The Blues Wreckers - Crying In The Rain
DYEAR=2018
DGENRE=Blues
TTITLE0=Crying In The Rain
TTITLE1=YOu Don't Know What I Know
TTITLE2=All I Need Is You
TTITLE3=Blues Ave
TTITLE4=Hole In My Bucket
TTITLE5=Rendevous  With The  Blues
TTITLE6=Let The Dogs Bark
TTITLE7=When My Baby Loves Me
TTITLE8=Short Loving Man
TTITLE9=The Mountain 
EXTD=
EXTT0=
EXTT1=
EXTT2=
EXTT3=
EXTT4=
EXTT5=
EXTT6=
EXTT7=
EXTT8=
EXTT9=
PLAYORDER=
